<?xml version="1.0" encoding="utf-8"?>
<!-- Generator: Adobe Illustrator 22.0.1, SVG Export Plug-In . SVG Version: 6.00 Build 0)  -->
<svg version="1.1" id="Capa_1" xmlns="http://www.w3.org/2000/svg" xmlns:xlink="http://www.w3.org/1999/xlink" x="0px" y="0px"
	 viewBox="0 0 438.5 438.5" style="enable-background:new 0 0 438.5 438.5;" xml:space="preserve">
<style type="text/css">
	.st0{fill:#FFFFFF;}
</style>
<g>
	<g>
		<rect x="42.5" y="191.6" class="st0" width="353.5" height="72.8"/>
		<path class="st0" d="M42.5,284.6v18.8c0,16.2,5.5,29.9,16.4,41.3c10.9,11.3,24.1,17,39.5,17h151v76.8l74.2-76.8H340
			c15.4,0,28.6-5.7,39.5-17c10.9-11.3,16.4-25.1,16.4-41.3v-18.8H42.5z"/>
		<rect x="42.5" y="97.9" class="st0" width="353.5" height="72.8"/>
		<path class="st0" d="M396,58c0-16-5.5-29.6-16.4-41S355.4,0,340,0H98.5C83.1,0,69.9,5.7,59,17S42.5,42,42.5,58v19.1H396L396,58
			L396,58z"/>
	</g>
</g>
</svg>
